<svg id="Layer_1" data-name="Layer 1" xmlns="http://www.w3.org/2000/svg" viewBox="0 0 667.83 113.94"><defs><style>.cls-1{fill:#312783;}.cls-2{fill:#ffd000;}</style></defs><title>LogoBlue</title><path class="cls-1" d="M244.77,41.32H232.51c-3.39-9.7-12.92-18.79-25.87-23.36-19.36-6.84-39.08-1-44,13-2.05,5.81-1.25,12.09,1.75,18A35.7,35.7,0,0,0,171.15,58a47.2,47.2,0,0,0,15.12,9.8V78.33c-.24-.08-.47-.15-.7-.24A65.46,65.46,0,0,1,164,65.56,52.74,52.74,0,0,1,155.47,56c-6.23-9.18-8.45-19.52-5.12-28.9C157,8.17,183.64.32,209.78,9.55,227.37,15.77,240.26,28.13,244.77,41.32Z" transform="translate(-148.81 -5.68)"/><path class="cls-1" d="M245,98.2c-6.68,18.93-33.29,26.78-59.43,17.54-20.16-7.11-34.15-22.31-36.43-37.58h12.52c1.53,11.44,12,22.89,27,28.22,19.37,6.85,39.08,1,44-13,2-5.55,1.32-11.55-1.37-17.2a35,35,0,0,0-7.16-9.83,47.5,47.5,0,0,0-15.12-9.81V47l.7.24A65.82,65.82,0,0,1,231,59.41a53.5,53.5,0,0,1,8.87,9.9C246.11,78.49,248.32,88.83,245,98.2Z" transform="translate(-148.81 -5.68)"/><path class="cls-2" d="M206,47v35a66,66,0,0,1-16.61-2.63V51.1H184.1V47Z" transform="translate(-148.81 -5.68)"/><path class="cls-2" d="M201.72,24.12l-.9,1.95a7.48,7.48,0,1,1-6.13-.08l-.84-1.82a9.55,9.55,0,1,0,7.87-.05Z" transform="translate(-148.81 -5.68)"/><rect class="cls-1" x="47.89" y="16.84" width="1.95" height="5.25"/><path class="cls-1" d="M292.93,47.27H280.61V42.86h29.95v4.41H298.18v36h-5.25Z" transform="translate(-148.81 -5.68)"/><path class="cls-1" d="M336,64.34H320.28v14.6h17.53v4.35H315V42.86h21.86v4.35H320.28V60H336Z" transform="translate(-148.81 -5.68)"/><path class="cls-1" d="M372.81,82a25.93,25.93,0,0,1-10.68,1.92c-11.39,0-19.94-7.2-19.94-20.48,0-12.69,8.56-21.21,21.11-21.21,5,0,8.22,1.05,9.6,1.77l-1.29,4.26a19.11,19.11,0,0,0-8.13-1.67c-9.5,0-15.78,6.07-15.78,16.69,0,9.89,5.7,16.21,15.5,16.21a21.33,21.33,0,0,0,8.57-1.66Z" transform="translate(-148.81 -5.68)"/><path class="cls-1" d="M384.6,42.86V59.79h19.55V42.86h5.25V83.29h-5.25v-19H384.6v19h-5.25V42.86Z" transform="translate(-148.81 -5.68)"/><path class="cls-1" d="M418.47,83.29V42.86h5.74l13,20.43a117,117,0,0,1,7.22,13.17l.13-.06c-.47-5.4-.57-10.33-.57-16.6V42.86h4.92V83.29h-5.3L430.7,62.8a134.1,134.1,0,0,1-7.52-13.54l-.18.06c.31,5.12.39,10,.39,16.68V83.29Z" transform="translate(-148.81 -5.68)"/><path class="cls-1" d="M492.53,62.67c0,13.88-8.45,21.28-18.76,21.28-10.73,0-18.18-8.3-18.18-20.52,0-12.81,7.93-21.23,18.73-21.23C485.36,42.2,492.53,50.66,492.53,62.67Zm-31.42.64c0,8.65,4.7,16.4,12.94,16.4s13-7.62,13-16.81c0-8-4.2-16.46-12.89-16.46S461.11,54.46,461.11,63.31Z" transform="translate(-148.81 -5.68)"/><path class="cls-1" d="M499.29,42.86h5.25v36h17.29v4.4H499.29Z" transform="translate(-148.81 -5.68)"/><path class="cls-1" d="M559.85,62.67c0,13.88-8.46,21.28-18.76,21.28-10.73,0-18.18-8.3-18.18-20.52,0-12.81,7.93-21.23,18.73-21.23C552.68,42.2,559.85,50.66,559.85,62.67Zm-31.42.64c0,8.65,4.7,16.4,12.94,16.4s13-7.62,13-16.81c0-8-4.2-16.46-12.89-16.46S528.43,54.46,528.43,63.31Z" transform="translate(-148.81 -5.68)"/><path class="cls-1" d="M597.43,81.48A36.82,36.82,0,0,1,585,83.7c-6.14,0-11.19-1.55-15.13-5.35-3.48-3.35-5.63-8.72-5.62-15,0-12.06,8.31-20.89,21.86-20.89a25.63,25.63,0,0,1,10.12,1.85l-1.31,4.27A20.43,20.43,0,0,0,586,46.83c-9.81,0-16.24,6.11-16.24,16.24s6.14,16.31,15.61,16.31c3.41,0,5.73-.48,6.93-1.09v-12h-8.18V62.07h13.32Z" transform="translate(-148.81 -5.68)"/><path class="cls-1" d="M614.41,83.29V66.15L601.59,42.86h6L613.25,54c1.54,3.06,2.78,5.51,4,8.34h.12c1.11-2.66,2.49-5.31,4.06-8.38l5.83-11.13h5.91L619.66,66.07V83.29Z" transform="translate(-148.81 -5.68)"/><path class="cls-1" d="M650.54,43.41a55.56,55.56,0,0,1,10.05-.87c5.54,0,9.2,1.05,11.72,3.33a10.14,10.14,0,0,1,3.17,7.69c0,5.31-3.39,8.84-7.62,10.3V64c3.08,1.08,4.94,4,5.93,8.19,1.33,5.65,2.28,9.51,3.11,11.09h-5.42c-.64-1.17-1.55-4.61-2.66-9.68-1.2-5.53-3.39-7.68-8.11-7.84h-5V83.29h-5.22Zm5.22,18.41h5.34c5.59,0,9.13-3,9.13-7.68,0-5.25-3.79-7.53-9.3-7.54a22.76,22.76,0,0,0-5.17.46Z" transform="translate(-148.81 -5.68)"/><path class="cls-1" d="M703.75,64.34H688.07v14.6h17.54v4.35H682.82V42.86h21.86v4.35H688.07V60h15.68Z" transform="translate(-148.81 -5.68)"/><path class="cls-1" d="M712.34,43.35a57.1,57.1,0,0,1,10.06-.81c5.12,0,8.91,1.19,11.33,3.36a11,11,0,0,1,3.56,8.47A11.9,11.9,0,0,1,734.14,63c-2.78,3-7.25,4.43-12.35,4.43a17,17,0,0,1-4.23-.38V83.29h-5.22Zm5.22,19.47a15.9,15.9,0,0,0,4.33.46c6.34,0,10.16-3.11,10.16-8.64,0-5.35-3.82-8-9.55-8a24.88,24.88,0,0,0-4.94.42Z" transform="translate(-148.81 -5.68)"/><path class="cls-1" d="M745.78,70.58l-4.17,12.71h-5.42l13.75-40.43h6.29L770,83.29h-5.59l-4.33-12.71Zm13.28-4.08-4-11.64c-.88-2.64-1.48-5-2.08-7.37h-.14c-.58,2.36-1.21,4.83-2,7.3l-4,11.71Z" transform="translate(-148.81 -5.68)"/><path class="cls-1" d="M781.19,42.86V83.29h-5.25V42.86Z" transform="translate(-148.81 -5.68)"/><path class="cls-1" d="M790.28,43.41a55.56,55.56,0,0,1,10.05-.87c5.54,0,9.19,1.05,11.71,3.33a10.11,10.11,0,0,1,3.18,7.69c0,5.31-3.39,8.84-7.63,10.3V64c3.09,1.08,4.95,4,5.93,8.19,1.34,5.65,2.29,9.51,3.11,11.09h-5.41c-.64-1.17-1.55-4.61-2.66-9.68-1.2-5.53-3.39-7.68-8.12-7.84H795.5V83.29h-5.22Zm5.22,18.41h5.34c5.59,0,9.13-3,9.13-7.68,0-5.25-3.79-7.53-9.3-7.54a22.76,22.76,0,0,0-5.17.46Z" transform="translate(-148.81 -5.68)"/></svg>